<svg id="Layer_1" data-name="Layer 1" xmlns="http://www.w3.org/2000/svg" xmlns:xlink="http://www.w3.org/1999/xlink" viewBox="0 0 1218 1080"><defs><style>.cls-1{fill:url(#linear-gradient);}</style><linearGradient id="linear-gradient" x1="5.12" y1="541" x2="1218" y2="541" gradientUnits="userSpaceOnUse"><stop offset="0" stop-color="#ad4bde"/><stop offset="1" stop-color="#4f1ec0"/></linearGradient></defs><title>Artboard 1_v001</title><path class="cls-1" d="M702.28,57.9c-59.1-7.95-174-47.68-233.7-47.68-99.55,0-269.17-37.48-326.17,47.62-30.84,46.05-116.87,124-134,176.67C-24,334,194.28,477.21,212.44,577.84,229.67,673.28,167.91,870.46,189.5,965c22.76,99.69,204.13,133.82,299.44,105.25C549.66,1052.06,570.72,918.93,634,922c103,5,194-139,233.73-229.14,20.9-47.42,136.57-74.87,181.39-101,98.31-57.4,224.37-129.53,142.53-287.14-26.37-50.78-92.43-145.12-117.12-196.72C1019.12-7.83,800.93,71.16,702.28,57.9Z"/></svg>