<svg xmlns="http://www.w3.org/2000/svg" xmlns:xlink="http://www.w3.org/1999/xlink" viewBox="0 0 5200 3000"><defs><style>.cls-1{fill:url(#linear-gradient);}.cls-2{fill:url(#linear-gradient-2);}</style><linearGradient id="linear-gradient" x1="6408.68" y1="2117.91" x2="-495.82" y2="2117.91" gradientTransform="translate(-647.02 489.4) rotate(-9.51)" gradientUnits="userSpaceOnUse"><stop offset="0.12" stop-color="#4f1ec0"/><stop offset="0.88" stop-color="#f51d7e"/></linearGradient><linearGradient id="linear-gradient-2" x1="6087.73" y1="999.43" x2="-802.94" y2="999.43" gradientTransform="translate(261.92 -544.63) rotate(12.52)" gradientUnits="userSpaceOnUse"><stop offset="0.12" stop-color="#ad4bde"/><stop offset="0.87" stop-color="#4f1ec0"/></linearGradient></defs><title>CasesSectionBlob01_v002</title><g id="Layer_4" data-name="Layer 4"><path class="cls-1" d="M-836.86,2137.64l835.66-140C502,1725.72,1011.61,1769.37,2224.12,1846.91c235.39,15,491.23-366.33,816.86-485.57,679.77-248.92,1755.92,77.44,2190.54-307.59l699.66-85.65,113.54,897-746.9,125.13c-539.09-8.3-1756.29,819.13-2926.83,760.2-780.68-39.32-1615.75,24.46-2410.45,153.9L-729.13,3000Z"/></g><g id="Layer_2" data-name="Layer 2"><path class="cls-2" d="M6096.05,1265.33l-169.7,764.41-655.1-181c-599.57,22.42-1887.42-498.18-3049.9-466-1054,29.13-1404.7-878.62-2284.54-676.46L-799,529.58-675.26-28l635.1,181c1615.59-349.42,3137,1001.89,5281.78,922.68Z"/></g></svg>